<svg width="42" height="40" viewBox="0 0 42 40" fill="none" xmlns="http://www.w3.org/2000/svg">
<rect x="0.458374" width="40.8333" height="40" rx="20" fill="#FF3E79"/>
<path fill-rule="evenodd" clip-rule="evenodd" d="M13.4843 23.25L16.0772 22.96C16.6999 22.89 17.3124 23.1 17.7513 23.53L19.6297 25.37C22.5186 23.93 24.887 21.62 26.357 18.78L24.4684 16.93C24.0295 16.5 23.8151 15.9 23.8866 15.29L24.1826 12.77C24.3051 11.76 25.1728 11 26.2141 11H27.9801C29.1336 11 30.0932 11.94 30.0218 13.07C29.4807 21.61 22.5084 28.43 13.8007 28.96C12.6472 29.03 11.6876 28.09 11.6876 26.96V25.23C11.6774 24.22 12.4532 23.37 13.4843 23.25Z" fill="white"/>
</svg>
